<?xml version="1.0" encoding="UTF-8"?>
<!DOCTYPE svg PUBLIC "-//W3C//DTD SVG 1.1//EN" "http://www.w3.org/Graphics/SVG/1.1/DTD/svg11.dtd">
<!-- Creator: CorelDRAW 2020 (64-Bit) -->
<svg xmlns="http://www.w3.org/2000/svg" xml:space="preserve" width="210.131mm" height="44.879mm" version="1.1" style="shape-rendering:geometricPrecision; text-rendering:geometricPrecision; image-rendering:optimizeQuality; fill-rule:evenodd; clip-rule:evenodd"
viewBox="0 0 21013.1 4487.9"
 xmlns:xlink="http://www.w3.org/1999/xlink"
 xmlns:xodm="http://www.corel.com/coreldraw/odm/2003"
 data-name="Layer 1">
 <defs>
  <style type="text/css">
   <![CDATA[
    .fil0 {fill:#FEFEFE;fill-rule:nonzero}
   ]]>
  </style>
 </defs>
 <g id="Слой_x0020_1">
  <metadata id="CorelCorpID_0Corel-Layer"/>
  <g id="_1403212022592">
   <g>
    <g>
     <path class="fil0" d="M19.96 16.25l2023.28 0c11.04,0.01 19.98,8.95 19.98,19.97l-0.01 2023.27c0.01,11.03 -8.93,19.97 -19.95,19.97l-2023.3 0c-11,0 -19.94,-8.94 -19.94,-19.96l-0.02 -2023.29c0.02,-11.01 8.96,-19.95 19.98,-19.95z"/>
     <path class="fil0" d="M4806.32 16.25l2023.28 0c11.04,0.01 19.98,8.95 19.98,19.97l-0.02 2023.27c0.02,11.03 -8.92,19.97 -19.94,19.97l-2023.3 0c-11,0 -19.94,-8.94 -19.94,-19.96l-0.02 -2023.29c0.02,-11.01 8.96,-19.95 19.98,-19.95z"/>
     <path class="fil0" d="M2413.14 16.25l2023.28 0c11.04,0.01 19.98,8.95 19.98,19.97l-0.02 2023.27c0.02,11.03 -8.92,19.97 -19.94,19.97l-2023.3 0c-11,0 -19.94,-8.94 -19.94,-19.96l-0.02 -2023.29c0.02,-11.01 8.96,-19.95 19.98,-19.95z"/>
     <path class="fil0" d="M2413.14 2409.43l2023.28 0c11.04,-0.02 19.98,8.92 19.98,19.94l-0.02 2023.3c0.02,11 -8.92,19.94 -19.94,19.94l-2023.3 0.02c-11,-0.02 -19.94,-8.96 -19.94,-19.98l-0.02 -2023.26c0.02,-11.04 8.96,-19.98 19.98,-19.98z"/>
    </g>
    <g>
     <path class="fil0" d="M4831.76 4168.89c-72.41,0 -131.52,58.71 -131.52,131.13 0,72.42 58.71,131.13 130.74,131.13 72.03,0 131.52,-58.91 131.52,-131.13 0,-72.22 -58.71,-131.13 -130.74,-131.13zm0 18.98c62.24,0 110.97,48.93 110.97,111.36 0,62.43 -49.12,112.73 -111.75,112.73 -62.63,0 -110.97,-48.93 -110.97,-111.36 0,-62.43 49.12,-112.73 111.75,-112.73z"/>
     <path class="fil0" d="M4805.14 4317.04l27.21 0 33.27 46.38 30.34 0.01 -36.01 -50.49c18.4,-5.28 31.12,-18.79 31.12,-40.32 0,-12.33 -3.91,-21.92 -10.96,-28.57 -9.2,-9.2 -22.9,-14.48 -40.71,-14.48l-59.7 -0.01 0 134.06 25.44 0 0 -46.38 0 -0.2zm0 -64.58l33.28 0c16.64,0 26.42,7.44 26.42,20.94 0,13.5 -9.98,21.53 -26.42,21.53l-33.28 0 0 -42.47z"/>
    </g>
   </g>
   <g>
    <polygon class="fil0" points="9218.67,221.36 8912.57,221.36 8912.57,17.42 9745.92,17.42 9745.92,221.36 9439.82,221.36 9439.82,1023.19 9218.47,1023.19 9218.47,221.36 "/>
    <path class="fil0" d="M9806.59 520.21c0,-285.94 225.66,-520.21 535.86,-520.21 310.19,0 533.11,231.33 533.11,520.21 0,288.88 -225.66,520.21 -535.85,520.21 -310.2,0 -533.12,-231.33 -533.12,-520.21zm837.64 0c0,-172.42 -126.43,-316.08 -304.52,-316.08 -178.1,0 -301.79,140.91 -301.79,316.08 0,175.17 126.43,316.08 304.53,316.08 178.09,0 301.78,-140.91 301.78,-316.08z"/>
    <path class="fil0" d="M10957.57 876.6l130.74 -156.57c90.62,74.76 185.34,122.12 300.22,122.12 90.62,0 145.22,-36.01 145.22,-97.66 0,-55.97 -34.45,-84.74 -202.56,-127.8 -202.56,-51.67 -333.3,-107.84 -333.3,-310.4 0,-182.6 146.59,-303.16 352.09,-303.16 146.59,0 271.65,45.99 373.62,128l-114.88 166.75c-89.05,-61.85 -176.73,-99.23 -261.47,-99.23 -84.74,0 -129.37,38.75 -129.37,90.62 0,66.15 43.06,87.68 217.05,132.11 203.93,53.23 319.01,126.43 319.01,304.53 0,199.63 -152.26,311.77 -369.31,311.77 -152.26,0 -306.1,-53.23 -426.65,-160.88l-0.41 -0.2z"/>
    <polygon class="fil0" points="11922.43,17.42 12143.78,17.42 12143.78,415.31 12551.84,415.31 12551.84,17.42 12773.2,17.42 12773.2,1023.19 12551.84,1023.19 12551.84,619.44 12143.78,619.44 12143.78,1023.2 11922.43,1023.19 "/>
    <polygon class="fil0" points="12995.13,17.42 13216.49,17.42 13216.49,457 13624.55,17.23 13891.89,17.23 13482.46,444.08 13910.68,1023.19 13644.9,1023.19 13333.13,594.97 13216.68,715.72 13216.68,1023.19 12995.33,1023.19 12995.33,17.42 "/>
    <polygon class="fil0" points="14018.71,17.42 14777.3,17.42 14777.3,214.12 14238.5,214.12 14238.5,418.25 14712.71,418.24 14712.71,615.13 14238.5,615.13 14238.5,826.3 14784.54,826.31 14784.54,1023.2 14018.71,1023.19 "/>
    <polygon class="fil0" points="14968.51,17.42 15172.64,17.42 15643.92,636.66 15643.91,17.42 15862.33,17.42 15862.33,1023.19 15674.05,1023.19 15186.92,383.8 15186.92,1023.19 14968.51,1023.19 "/>
    <polygon class="fil0" points="16292.9,221.36 15986.8,221.36 15986.8,17.42 16820.15,17.42 16820.15,221.36 16514.05,221.36 16514.05,1023.19 16292.7,1023.19 16292.7,221.36 "/>
   </g>
   <g>
    <path class="fil0" d="M9343.73 1734.8l203.93 0 431.16 1013.01 -231.34 0.01 -91.99 -225.66 -425.28 0 -91.99 225.66 -225.65 0 431.16 -1013.01 0 -0.01zm232.7 592.04l-133.67 -326.06 -133.67 326.06 267.34 0z"/>
    <polygon class="fil0" points="10097.42,1741.85 10335.99,1741.85 10600.39,2167.13 10864.8,1741.85 11103.37,1741.85 11103.37,2747.62 10883.59,2747.62 10883.59,2091 10600.59,2520.59 10594.91,2520.59 10314.66,2095.31 10314.66,2747.62 10097.61,2747.62 10097.61,1741.85 "/>
    <path class="fil0" d="M11652.94 1734.8l203.93 0 431.16 1013.01 -231.34 0.01 -91.99 -225.66 -425.28 0 -91.99 225.66 -225.65 0 431.16 -1013.01 0 -0.01zm232.7 592.04l-133.67 -326.06 -133.67 326.06 267.34 0z"/>
    <polygon class="fil0" points="12406.43,1741.85 12627.78,1741.85 12627.78,2546.43 13129.2,2546.43 13129.2,2747.62 12406.43,2747.62 "/>
    <polygon class="fil0" points="13257.19,1741.85 13478.55,1741.85 13478.55,2747.62 13257.19,2747.62 "/>
    <polygon class="fil0" points="13977.03,2351.1 13590.5,1741.85 13849.03,1741.85 14088.97,2145.61 14333.22,1741.85 14584.72,1741.85 14198.19,2346.8 14198.19,2747.62 13976.83,2747.62 13976.83,2351.11 "/>
    <polygon class="fil0" points="15110.99,1741.85 15876.81,1741.85 15876.81,1943.04 15332.34,1943.04 15332.34,2157.15 15812.23,2157.15 15812.23,2358.34 15332.34,2358.35 15332.34,2747.82 15110.99,2747.82 15110.99,1742.05 "/>
    <path class="fil0" d="M16284.68 1734.8l203.93 0 431.16 1013.01 -231.34 0.01 -91.99 -225.66 -425.28 0 -91.99 225.66 -225.65 0 431.16 -1013.01 0 -0.01zm232.7 592.04l-133.67 -326.06 -133.67 326.06 267.34 0z"/>
    <polygon class="fil0" points="17038.37,1741.85 17242.5,1741.85 17713.78,2361.09 17713.78,1741.85 17932.19,1741.85 17932.19,2747.62 17743.91,2747.62 17256.78,2108.23 17256.78,2747.62 17038.37,2747.62 "/>
    <polygon class="fil0" points="18154.32,1741.85 18375.67,1741.85 18375.67,2546.43 18877.09,2546.43 18877.09,2747.62 18154.32,2747.62 "/>
    <path class="fil0" d="M19390.25 1734.8l203.93 0 431.16 1013.01 -231.33 0.01 -91.99 -225.66 -425.28 0 -91.99 225.66 -225.65 0 431.16 -1013.01 -0.01 -0.01zm232.7 592.04l-133.67 -326.06 -133.67 326.06 267.34 0z"/>
    <path class="fil0" d="M20143.94 1741.85l459.73 0c127.8,0 227.03,36.01 293.18,101.97 55.97,55.97 86.11,135.04 86.11,232.7 0,162.44 -87.68,264.41 -215.48,311.77l245.62 359.13 -258.53 0 -218.42 -321.95 -171.05 0.01 0 321.95 -221.35 -0.01 0 -1005.77 0.19 0.2zm445.44 488.5c107.84,0 169.49,-57.54 169.49,-145.02 0,-94.73 -66.15,-143.65 -173.79,-143.65l-219.79 -0.01 0 288.87 224.09 0.01 0 -0.2z"/>
   </g>
   <g>
    <path class="fil0" d="M8994.58 4041.09l0 -574.81 221.35 0 0 568.94c0,163.81 81.81,248.56 217.05,248.56 135.24,0 217.05,-81.81 217.05,-241.31l0 -576.18 221.34 -0.01 0 567.57c0,304.73 -171.05,454.05 -441.14,454.05 -270.09,0 -435.46,-150.89 -435.46,-446.81l-0.19 0z"/>
    <polygon class="fil0" points="10069.43,3466.47 10273.56,3466.47 10744.83,4085.71 10744.83,3466.47 10963.24,3466.47 10963.24,4472.24 10774.97,4472.24 10287.85,3832.85 10287.85,4472.24 10069.43,4472.24 "/>
    <polygon class="fil0" points="11177.35,3466.47 11398.7,3466.47 11398.7,4472.24 11177.35,4472.24 "/>
    <polygon class="fil0" points="11506.74,3466.47 11750.99,3466.47 12014.03,4174.95 12277.07,3466.47 12515.64,3466.47 12108.95,4479.48 11913.62,4479.48 11506.93,3466.47 "/>
    <polygon class="fil0" points="12621.71,3466.47 13380.49,3466.47 13380.49,3663.36 12841.7,3663.36 12841.7,3867.49 13315.91,3867.49 13315.91,4064.38 12841.7,4064.38 12841.7,4275.55 13387.73,4275.55 13387.73,4472.44 12621.91,4472.44 12621.91,3466.67 "/>
    <path class="fil0" d="M13558.98 3466.47l459.73 0c127.8,0 227.03,36.01 293.18,101.97 55.97,55.97 86.11,135.04 86.11,232.7 0,162.44 -87.68,264.41 -215.48,311.77l245.62 359.13 -258.73 0.01 -218.42 -321.95 -171.05 0 0 321.95 -221.35 0 0 -1005.77 0.39 0.19zm445.45 488.5c107.84,0 169.49,-57.54 169.49,-145.22 0,-94.92 -66.15,-143.65 -173.79,-143.65l-219.8 0 0 288.87 224.1 0z"/>
    <path class="fil0" d="M14483.92 4325.65l130.74 -156.57c90.62,74.76 185.34,122.12 300.22,122.12 90.62,0 145.22,-36.01 145.22,-97.66 0,-55.97 -34.45,-84.74 -202.56,-127.8 -202.56,-51.67 -333.3,-107.84 -333.3,-310.4 0,-182.4 146.59,-303.16 352.09,-303.16 146.59,0 271.65,45.99 373.62,127.8l-114.88 166.75c-89.05,-61.85 -176.73,-99.23 -261.47,-99.23 -84.74,0 -129.37,38.75 -129.37,90.62 0,66.15 43.06,87.68 217.05,132.11 204.13,53.23 319.01,126.43 319.01,304.73 0,199.63 -152.26,311.77 -369.31,311.77 -152.26,0 -306.1,-53.23 -426.65,-160.88l-0.41 -0.2z"/>
    <polygon class="fil0" points="15440.37,3466.47 15661.72,3466.47 15661.72,4472.24 15440.37,4472.24 "/>
    <polygon class="fil0" points="16082.9,3670.41 15776.8,3670.41 15776.8,3466.28 16610.15,3466.28 16610.15,3670.41 16304.05,3670.41 16304.05,4472.25 16082.7,4472.24 16082.7,3670.4 "/>
    <polygon class="fil0" points="16722.68,3466.47 17481.46,3466.47 17481.46,3663.36 16942.66,3663.36 16942.66,3867.49 17416.88,3867.49 17416.88,4064.38 16942.66,4064.38 16942.66,4275.55 17488.7,4275.55 17488.7,4472.44 16722.88,4472.44 16722.88,3466.67 "/>
    <polygon class="fil0" points="17881.7,3670.41 17575.6,3670.41 17575.6,3466.28 18408.95,3466.28 18408.95,3670.41 18102.85,3670.41 18102.85,4472.25 17881.5,4472.24 17881.5,3670.4 "/>
    <polygon class="fil0" points="18526.37,3466.47 18747.73,3466.47 18747.73,4472.24 18526.37,4472.24 "/>
   </g>
  </g>
 </g>
</svg>
